<?xml version="1.0" encoding="UTF-8" standalone="no"?>
<svg width="34px" height="34px" viewBox="0 0 34 34" version="1.1" xmlns="http://www.w3.org/2000/svg" xmlns:xlink="http://www.w3.org/1999/xlink">
    <!-- Generator: Sketch 41 (35326) - http://www.bohemiancoding.com/sketch -->
    <title>Group 2</title>
    <desc>Created with Sketch.</desc>
    <defs></defs>
    <g id="web" stroke="none" stroke-width="1" fill="none" fill-rule="evenodd">
        <g id="客服主管视角-已录入" transform="translate(-597.000000, -298.000000)">
            <g id="Group-2" transform="translate(597.000000, 298.000000)">
                <polyline id="Rectangle-5" fill="#FD5722" points="0 0 34 0 0 34"></polyline>
                <path d="M3.12563281,10.5738633 L5.82563281,10.5738633 L5.82563281,12.2058633 L3.12563281,12.2058633 L3.12563281,10.5738633 Z M3.12563281,13.0098633 L5.82563281,13.0098633 L5.82563281,16.1658633 C5.82563281,17.0778633 6.26963281,17.5458633 7.16963281,17.5458633 L10.4096328,17.5458633 C10.9856328,17.5458633 11.3816328,17.4498633 11.5976328,17.2578633 C11.8136328,17.0538633 11.9576328,16.4778633 12.0296328,15.5178633 L11.2376328,15.2538633 C11.1896328,15.9978633 11.1056328,16.4298633 10.9616328,16.5498633 C10.8176328,16.6698633 10.5896328,16.7298633 10.2656328,16.7298633 L7.36163281,16.7298633 C6.91763281,16.7298633 6.70163281,16.4898633 6.70163281,16.0338633 L6.70163281,13.0098633 L9.56963281,13.0098633 L9.56963281,13.9098633 C9.56963281,14.2938633 9.40163281,14.4978633 9.07763281,14.4978633 C8.70563281,14.4978633 8.29763281,14.4738633 7.86563281,14.4498633 L8.10563281,15.2778633 L9.34163281,15.2778633 C10.0616328,15.2778633 10.4336328,14.9178633 10.4336328,14.2218633 L10.4336328,7.30986328 L2.24963281,7.30986328 L2.24963281,13.0098633 C2.22563281,14.6298633 1.82963281,15.9738633 1.06163281,17.0298633 L1.70963281,17.6178633 C2.62163281,16.4418633 3.08963281,14.9058633 3.12563281,13.0098633 Z M9.56963281,12.2058633 L6.70163281,12.2058633 L6.70163281,10.5738633 L9.56963281,10.5738633 L9.56963281,12.2058633 Z M9.56963281,9.75786328 L6.70163281,9.75786328 L6.70163281,8.13786328 L9.56963281,8.13786328 L9.56963281,9.75786328 Z M5.82563281,8.13786328 L5.82563281,9.75786328 L3.12563281,9.75786328 L3.12563281,8.13786328 L5.82563281,8.13786328 Z M14.4656328,8.67786328 L14.4656328,13.6698633 L18.0416328,13.6698633 L18.0416328,14.7618633 L13.1336328,14.7618633 L13.1336328,15.5898633 L18.0416328,15.5898633 L18.0416328,17.8458633 L18.9176328,17.8458633 L18.9176328,15.5898633 L23.8136328,15.5898633 L23.8136328,14.7618633 L18.9176328,14.7618633 L18.9176328,13.6698633 L22.4936328,13.6698633 L22.4936328,8.67786328 L20.3336328,8.67786328 C20.6576328,8.19786328 20.9576328,7.64586328 21.2336328,7.02186328 L20.4056328,6.72186328 C20.1416328,7.41786328 19.8176328,8.07786328 19.4576328,8.67786328 L16.9736328,8.67786328 L17.5256328,8.38986328 C17.1656328,7.80186328 16.7936328,7.26186328 16.3856328,6.76986328 L15.6296328,7.12986328 C16.0256328,7.58586328 16.3976328,8.10186328 16.7576328,8.67786328 L14.4656328,8.67786328 Z M21.6296328,12.9018633 L18.9176328,12.9018633 L18.9176328,11.5578633 L21.6296328,11.5578633 L21.6296328,12.9018633 Z M18.0416328,12.9018633 L15.3176328,12.9018633 L15.3176328,11.5578633 L18.0416328,11.5578633 L18.0416328,12.9018633 Z M15.3176328,10.8018633 L15.3176328,9.46986328 L18.0416328,9.46986328 L18.0416328,10.8018633 L15.3176328,10.8018633 Z M18.9176328,9.46986328 L21.6296328,9.46986328 L21.6296328,10.8018633 L18.9176328,10.8018633 L18.9176328,9.46986328 Z" id="甩单" fill="#FFFFFF" transform="translate(12.437633, 12.283863) rotate(-45.000000) translate(-12.437633, -12.283863) "></path>
            </g>
        </g>
    </g>
</svg>